<?xml version="1.0" encoding="UTF-8"?>
<svg version="1.1" stroke="currentColor" xmlns="http://www.w3.org/2000/svg" width="2000" height="1252" fill="currentColor">
<path d="M0 0 C1.42736849 -0.00706483 2.85473665 -0.01419751 4.28210449 -0.02139282 C8.81958537 -0.04091956 13.35701229 -0.04608514 17.89453125 -0.046875 C19.05561087 -0.04731686 19.05561087 -0.04731686 20.24014664 -0.04776764 C42.76071575 -0.04915215 65.15270601 0.05566803 87.52416992 2.92449951 C89.8933358 3.22690534 92.26391417 3.51629485 94.63476562 3.80517578 C119.63628717 6.88805248 144.21975654 11.29996195 168.70703125 17.203125 C169.36495667 17.36083374 170.02288208 17.51854248 170.70074463 17.68103027 C209.7645182 27.08073926 247.78907167 40.81655759 284.09423828 57.97460938 C286.45593544 59.08506164 288.8260137 60.17304708 291.203125 61.25 C316.82948648 72.92662409 341.31773708 87.56239612 364.70703125 103.203125 C365.35800781 103.63802246 366.00898437 104.07291992 366.6796875 104.52099609 C383.03280753 115.49758089 398.80747743 127.21186263 413.97460938 139.77490234 C416.45014002 141.8157499 418.9570134 143.81739636 421.45703125 145.828125 C426.3740492 149.8504675 431.04088915 154.10151572 435.6875 158.4296875 C437.87696972 160.46363606 440.11796877 162.42441698 442.38378906 164.37280273 C446.72867625 168.1695737 450.82545661 172.1769989 454.8984375 176.26171875 C456.02184792 177.38369408 456.02184792 177.38369408 457.16795349 178.52833557 C458.7397435 180.09944964 460.31028974 181.67180892 461.87963867 183.24536133 C464.26304429 185.63412346 466.65174193 188.01749946 469.04101562 190.40039062 C470.57714362 191.9371795 472.11296134 193.4742786 473.6484375 195.01171875 C474.35279434 195.71405136 475.05715118 196.41638397 475.78285217 197.13999939 C480.2896345 201.66784726 484.55296524 206.35076033 488.70703125 211.203125 C489.71572764 212.36754989 490.72477731 213.53166898 491.734375 214.6953125 C497.53280495 221.42364243 503.24080866 228.19986556 508.70703125 235.203125 C509.45082031 236.15058594 510.19460938 237.09804687 510.9609375 238.07421875 C564.41291673 306.79819204 603.78459647 385.62848823 641.01953125 560.765625 C641.10093353 561.55639435 641.18233582 562.3471637 641.26620483 563.16189575 C643.30205524 583.25898916 643.91430661 603.25771832 643.89453125 623.453125 C643.893927 624.59819519 643.89332275 625.74326538 643.8927002 626.92303467 C643.86674399 645.0964937 643.48360464 663.10428364 641.70703125 681.203125 C641.64386719 681.85446411 641.58070312 682.50580322 641.515625 683.17687988 C633.59399337 764.25225557 610.40278679 841.68000846 531.70703125 982.203125 C531.19430664 982.92693359 530.68158203 983.65074219 530.15332031 984.39648438 C520.41603987 998.11640024 510.242283 1011.35450835 499.3046875 1024.13671875 C496.98050383 1026.86083486 494.74779541 1029.64982493 492.51953125 1032.453125 C481.20644891 1046.25626186 468.29838985 1058.70851409 455.70703125 1071.328125 C455.02727234 1072.01056274 454.34751343 1072.69300049 453.64715576 1073.39611816 C439.85807169 1087.22635624 439.85807169 1087.22635624 432.70703125 1093.203125 C431.6118742 1094.15202434 430.5180984 1095.10252042 429.42578125 1096.0546875 C398.85753598 1122.45517786 365.88761366 1146.28335832 330.70703125 1166.203125 C329.88928223 1166.6676709 329.0715332 1167.1322168 328.22900391 1167.61083984 C259.24438778 1206.54847297 183.86965898 1232.73333865 100.20703125 1243.890625 C99.43428864 1243.99353851 98.66154602 1244.09645203 97.86538696 1244.20248413 C72.62843732 1247.52961744 47.44395195 1248.58508906 22.01725388 1248.52118301 C19.7324593 1248.51553333 17.44767218 1248.51271879 15.16287231 1248.51010132 C-6.41051767 1248.47418577 -27.84463959 1248.16664871 -49.27539062 1245.45635986 C-51.40390113 1245.1892014 -53.53372812 1244.93528638 -55.6640625 1244.68310547 C-124.05852466 1236.5039825 -190.20756842 1217.01924498 -252.29296875 1187.203125 C-253.85772949 1186.45361572 -253.85772949 1186.45361572 -255.45410156 1185.68896484 C-271.52947323 1177.94083839 -287.02984772 1169.44331791 -302.29296875 1160.203125 C-303.22544434 1159.64061035 -304.15791992 1159.0780957 -305.11865234 1158.49853516 C-316.78072196 1151.44147739 -328.17539574 1144.08919012 -339.29296875 1136.203125 C-340.01049316 1135.69813477 -340.72801758 1135.19314453 -341.46728516 1134.67285156 C-351.82299198 1127.37377388 -361.80431264 1119.73356462 -371.55322266 1111.64306641 C-373.99307976 1109.6236618 -376.45716439 1107.63441539 -378.91796875 1105.640625 C-396.0888083 1091.54057643 -412.12940749 1076.44941486 -427.85546875 1060.765625 C-428.42036011 1060.20341248 -428.98525146 1059.64119995 -429.56726074 1059.06195068 C-435.69607958 1052.95520362 -441.67898965 1046.79284592 -447.29296875 1040.203125 C-448.70620425 1038.6583124 -450.12237284 1037.11617175 -451.54296875 1035.578125 C-455.63377564 1031.04976152 -459.40577683 1026.32920806 -463.14013672 1021.50830078 C-466.0622404 1017.74232682 -469.07033436 1014.07790949 -472.16796875 1010.453125 C-492.8564166 985.67210257 -510.66179545 957.39102698 -526.29296875 929.203125 C-526.85886719 928.19330566 -527.42476562 927.18348633 -528.0078125 926.14306641 C-546.00436921 893.93263681 -560.50843323 860.37104857 -572.54296875 825.515625 C-572.78606781 824.81350891 -573.02916687 824.11139282 -573.27963257 823.38800049 C-573.96223046 821.40787375 -574.63717408 819.42534772 -575.30859375 817.44140625 C-575.69305664 816.30743408 -576.07751953 815.17346191 -576.47363281 814.00512695 C-577.29296875 811.203125 -577.29296875 811.203125 -577.29296875 808.203125 C-572.34296875 808.203125 -567.39296875 808.203125 -562.29296875 808.203125 C-561.50535156 810.44222656 -560.71773437 812.68132813 -559.90625 814.98828125 C-546.00222726 854.29678645 -530.03640917 892.65450771 -508.8046875 928.64013672 C-507.32792468 931.14386025 -505.87191655 933.6587586 -504.41796875 936.17578125 C-489.35637722 962.00592288 -471.78547889 986.45473165 -452.72119141 1009.47070312 C-450.68034385 1011.94623377 -448.67869739 1014.45310715 -446.66796875 1016.953125 C-442.64562625 1021.87014295 -438.39457803 1026.5369829 -434.06640625 1031.18359375 C-432.0153444 1033.391883 -430.03584714 1035.65139841 -428.06860352 1037.93457031 C-424.55992394 1041.95004071 -420.8851209 1045.75617545 -417.109375 1049.51953125 C-416.45017563 1050.17968735 -415.79097626 1050.83984344 -415.11180115 1051.52000427 C-413.7290004 1052.90348006 -412.34495799 1054.28571583 -410.9597168 1055.66674805 C-408.86066532 1057.76044169 -406.76700935 1059.85942374 -404.67382812 1061.95898438 C-403.31933089 1063.31282071 -401.96452344 1064.66634675 -400.609375 1066.01953125 C-399.99453751 1066.63639297 -399.37970001 1067.2532547 -398.74623108 1067.8888092 C-394.42247031 1072.18975752 -389.9136501 1076.22492286 -385.29296875 1080.203125 C-384.10170508 1081.24868039 -382.91142613 1082.29536011 -381.72265625 1083.34375 C-374.04650175 1090.07294364 -366.2363267 1096.55844948 -358.14257812 1102.77880859 C-356.20213002 1104.27307658 -354.27085771 1105.7787214 -352.33984375 1107.28515625 C-321.46899562 1131.26049178 -288.21161642 1151.67258334 -253.29296875 1169.203125 C-252.18856445 1169.76 -251.08416016 1170.316875 -249.94628906 1170.890625 C-180.74371188 1205.59843869 -105.1277096 1225.61858436 18.45703125 1233.390625 C20.14528519 1233.38971863 20.14528519 1233.38971863 21.86764526 1233.38879395 C39.5672146 1233.36306258 57.08398701 1232.97047213 74.70703125 1231.203125 C75.35234802 1231.13996094 75.99766479 1231.07679687 76.66253662 1231.01171875 C164.54718584 1222.38837605 249.01924771 1195.15018577 399.70703125 1100.203125 C400.5475 1099.52378906 401.38796875 1098.84445312 402.25390625 1098.14453125 C416.70999377 1086.42507301 430.83614359 1074.28546327 443.87890625 1060.99609375 C445.77379241 1059.13764771 447.74679719 1057.42090488 449.76953125 1055.703125 C453.11425988 1052.82600892 455.94510526 1049.73261299 458.79296875 1046.37109375 C460.99928609 1043.87210167 463.33386818 1041.54402453 465.70703125 1039.203125 C469.92388214 1035.02426376 473.85971237 1030.71987736 477.70703125 1026.203125 C478.58629862 1025.19839451 479.46659348 1024.1945627 480.34765625 1023.19140625 C487.68399782 1014.79528922 494.50559777 1006.07772494 501.21240234 997.17382812 C502.54575078 995.41577707 503.89487129 993.67264355 505.2578125 991.9375 C529.4224547 961.0890206 549.15750846 927.16436098 566.70703125 892.203125 C567.19800293 891.23052734 567.68897461 890.25792969 568.19482422 889.25585938 C576.37005867 872.96747372 583.1711398 856.19787191 589.70703125 839.203125 C590.28130859 837.72030029 590.28130859 837.72030029 590.8671875 836.20751953 C615.31063735 772.69739361 627.02640784 704.05417594 628.70703125 636.203125 C628.74207764 634.81649658 628.74207764 634.81649658 628.77783203 633.40185547 C630.54375717 550.31433592 613.8935923 466.32221743 567.70703125 358.203125 C566.9804834 356.68428711 566.9804834 356.68428711 566.23925781 355.13476562 C558.81680196 339.69486748 550.5547666 324.86800355 541.70703125 310.203125 C541.15901855 309.28901855 540.61100586 308.37491211 540.04638672 307.43310547 C532.14581743 294.28923682 523.67415746 281.64107695 514.70703125 269.203125 C513.83860596 267.99245361 513.83860596 267.99245361 512.95263672 266.75732422 C504.63885377 255.19506342 495.90032262 244.07699751 486.70703125 233.203125 C486.18367188 232.58066895 485.6603125 231.95821289 485.12109375 231.31689453 C476.00584998 220.48675877 466.59797962 209.94246961 456.4921875 200.0234375 C454.67656885 198.17206269 453.00547239 196.24579897 451.33203125 194.265625 C447.91791004 190.29155681 444.11518466 186.88795145 440.1875 183.4296875 C437.90311849 181.37914032 435.7329445 179.26707011 433.58203125 177.078125 C429.78925386 173.2401955 425.8075338 169.70731264 421.70703125 166.203125 C420.61813711 165.26212646 419.52962693 164.32068352 418.44140625 163.37890625 C417.23847725 162.34091864 416.0353509 161.30315971 414.83203125 160.265625 C414.27950684 159.78770508 413.72698242 159.30978516 413.15771484 158.81738281 C408.11082489 154.48232706 402.92022106 150.33576457 397.70703125 146.203125 C396.9696875 145.6150708 396.23234375 145.0270166 395.47265625 144.42114258 C372.94418546 126.55155551 348.6881429 110.43590184 323.70703125 96.203125 C322.97097656 95.78208496 322.23492188 95.36104492 321.4765625 94.92724609 C316.25522225 91.95322354 310.99060208 89.06478018 305.70703125 86.203125 C304.92875977 85.77708984 304.15048828 85.35105469 303.34863281 84.91210938 C230.05885379 44.90353611 145.86783041 21.73090716 62.70703125 16.203125 C61.44963135 16.11627441 60.19223145 16.02942383 58.89672852 15.93994141 C45.9428462 15.0993399 32.99768629 14.96120116 20.01953125 14.953125 C18.31950958 14.95161438 18.31950958 14.95161438 16.58514404 14.95007324 C-14.63500222 14.96867914 -45.44144169 17.38109127 -76.29296875 22.203125 C-77.43137207 22.38069336 -78.56977539 22.55826172 -79.74267578 22.74121094 C-181.56173074 39.00790319 -276.39036305 82.41976964 -387.81640625 170.97265625 C-389.20660464 172.2247119 -390.60290354 173.47032556 -392.01991272 174.69195557 C-396.8099007 178.82358025 -401.36326974 183.12641884 -405.828125 187.60546875 C-406.51047714 188.28686417 -407.19282928 188.96825958 -407.89585876 189.67030334 C-409.32641312 191.10018241 -410.75572642 192.53130411 -412.18383789 193.96362305 C-414.34995949 196.13510211 -416.52137049 198.30118825 -418.69335938 200.46679688 C-420.09276862 201.86686702 -421.49186759 203.26724738 -422.890625 204.66796875 C-423.84872826 205.62303566 -423.84872826 205.62303566 -424.82618713 206.59739685 C-429.17875071 210.97229425 -433.26890209 215.52600421 -437.29296875 220.203125 C-438.33848391 221.39442397 -439.38515925 222.58470697 -440.43359375 223.7734375 C-447.13961582 231.42239404 -453.6287592 239.18839424 -459.80908203 247.26855469 C-460.82549716 248.59367371 -461.8476036 249.91444119 -462.87451172 251.23144531 C-480.77131098 274.19436698 -497.12221266 298.77075114 -511.29296875 324.203125 C-511.85387207 325.20827148 -512.41477539 326.21341797 -512.99267578 327.24902344 C-533.09327322 363.48656429 -548.88030417 401.06004266 -562.29296875 440.203125 C-567.24296875 440.203125 -572.19296875 440.203125 -577.29296875 440.203125 C-575.77939703 432.5538916 -573.46814121 425.31637586 -570.91796875 417.953125 C-570.70088257 417.32574432 -570.48379639 416.69836365 -570.26013184 416.05197144 C-553.05689833 366.54874169 -529.16389012 318.27607055 -499.29296875 275.203125 C-498.75816895 274.42630371 -498.22336914 273.64948242 -497.67236328 272.84912109 C-490.48030695 262.41111019 -483.14197068 252.15702891 -475.29296875 242.203125 C-474.41310634 241.06714619 -473.53423009 239.930403 -472.65625 238.79296875 C-463.60694426 227.10827395 -454.02114577 215.94165966 -443.9609375 205.1171875 C-442.59980975 203.63050917 -441.24035345 202.14099326 -439.93774414 200.6027832 C-434.13319467 193.76081703 -427.73668242 187.49648782 -421.38696289 181.16674805 C-419.36033895 179.14548232 -417.33911328 177.11892926 -415.31835938 175.09179688 C-409.14729437 168.91721418 -402.98657669 162.81652444 -396.29296875 157.203125 C-395.12419269 156.18209711 -393.95752928 155.15864592 -392.79296875 154.1328125 C-377.83719601 141.0539341 -362.40268192 128.8318783 -346.29296875 117.203125 C-345.23190918 116.43186279 -345.23190918 116.43186279 -344.14941406 115.64501953 C-316.46243824 95.55005574 -286.83894638 78.53648136 -256.29296875 63.203125 C-254.85002441 62.47464355 -254.85002441 62.47464355 -253.37792969 61.73144531 C-176.20501831 22.99590251 -86.47425276 0.28882913 0 0 Z " fill="#000000" transform="translate(1223.29296875,1.796875)"/>
<path d="M0 0 C0.158607 19.62516528 -0.27942904 39.21832864 -0.80771637 58.83385777 C-0.92220081 63.11113593 -1.03289914 67.38851227 -1.14404297 71.6658783 C-1.35393435 79.72224827 -1.5671047 87.77852782 -1.78153038 95.83477825 C-2.02597123 105.02495788 -2.26663909 114.2152352 -2.50703049 123.40552151 C-3.00056532 142.27045731 -3.49870678 161.13526885 -4 180 C-2.56502495 178.57691232 -1.13176405 177.15209605 0.30078125 175.7265625 C1.09911377 174.93330566 1.89744629 174.14004883 2.7199707 173.32275391 C4.61747434 171.38969366 6.42576433 169.43066446 8.1875 167.375 C11.63907375 163.35218677 15.24984044 159.49059406 18.875 155.625 C23.57185691 150.61366538 28.2222761 145.56935852 32.80078125 140.44921875 C35.30735565 137.65770517 37.83811351 134.88892475 40.375 132.125 C40.83527588 131.62347412 41.29555176 131.12194824 41.76977539 130.60522461 C43.6512955 128.55596319 45.53367408 126.50749124 47.41601562 124.45898438 C48.8194128 122.9313584 50.22235905 121.40332034 51.625 119.875 C52.30550415 119.1337085 52.30550415 119.1337085 52.99975586 118.37744141 C56.70772905 114.33225833 60.37533359 110.25196233 64.02734375 106.15625 C65.96194032 104.04160187 67.95769408 102.0103235 70 100 C74.57363624 101.58131331 78.28846331 104.00048568 82.26953125 106.68359375 C82.95053391 107.13976578 83.63153656 107.59593781 84.33317566 108.06593323 C85.76442901 109.02750922 87.19395041 109.99166758 88.62182617 110.95825195 C90.81557317 112.43957515 93.01969325 113.90451117 95.22460938 115.36914062 C96.61524685 116.30630784 98.00524407 117.24442597 99.39453125 118.18359375 C100.38813408 118.83998085 100.38813408 118.83998085 101.40180969 119.5096283 C102.98976288 120.59650409 104.50359874 121.79017457 106 123 C106 126 106 126 103.875 128.453125 C102.92490193 129.39380783 101.96599102 130.32564516 101 131.25 C100.49815186 131.74089111 99.99630371 132.23178223 99.47924805 132.73754883 C96.05664591 136.05966288 92.52284738 139.22795712 88.89453125 142.32421875 C86.13339675 144.76654184 83.58531189 147.40554261 81 150.03125 C78.43694772 152.55425459 75.72654176 154.87562817 73 157.21875 C70.91662922 159.0742521 68.95718793 161.01223101 67 163 C63.80355667 166.24638776 60.46676206 169.24071705 57.01171875 172.20703125 C54.15955166 174.74905978 51.51138606 177.47758615 48.83203125 180.19921875 C46.68312973 182.31146524 44.40978566 184.19266075 42 186 C43.27604159 188.75187312 44.64472937 190.94516965 46.65234375 193.21484375 C47.17586426 193.81184082 47.69938477 194.40883789 48.23876953 195.02392578 C48.79935059 195.65540527 49.35993164 196.28688477 49.9375 196.9375 C51.12173098 198.28720157 52.30531424 199.63747171 53.48828125 200.98828125 C54.0807666 201.6632666 54.67325195 202.33825195 55.28369141 203.03369141 C57.76115933 205.8720309 60.19722253 208.74414359 62.625 211.625 C63.07029053 212.15279053 63.51558105 212.68058105 63.97436523 213.22436523 C64.86892801 214.28508659 65.76321687 215.34603901 66.65722656 216.40722656 C68.93421439 219.10814812 71.21745794 221.80377244 73.5 224.5 C74.41669584 225.58330865 75.33336253 226.66664196 76.25 227.75 C76.70375 228.28625 77.1575 228.8225 77.625 229.375 C79 231 80.375 232.625 81.75 234.25 C82.4308667 235.0546167 82.4308667 235.0546167 83.12548828 235.87548828 C84.04064413 236.95709521 84.9556835 238.03880069 85.87060547 239.12060547 C88.18443478 241.85617939 90.50036471 244.58992474 92.8203125 247.3203125 C98.62233448 254.15384974 104.3505085 261.0392685 110 268 C105.89590515 272.46810577 101.33784234 275.6524302 96.26953125 278.95703125 C95.43789963 279.50485764 94.60626801 280.05268402 93.74943542 280.61711121 C92.00062545 281.76708074 90.24987917 282.91411048 88.49731445 284.05834961 C85.80602929 285.8167277 83.12240196 287.58635697 80.43945312 289.35742188 C78.73742146 290.47463245 77.03496237 291.59119217 75.33203125 292.70703125 C74.52683548 293.23819046 73.72163971 293.76934967 72.89204407 294.31660461 C72.14754501 294.80098495 71.40304596 295.2853653 70.63598633 295.78442383 C69.98044266 296.21346512 69.32489899 296.64250641 68.64949036 297.08454895 C67 298 67 298 65 298 C63.3335625 295.75562616 61.79249819 293.51000983 60.2734375 291.16796875 C59.8069278 290.46158768 59.34041809 289.7552066 58.85977173 289.02742004 C57.35827763 286.75169313 55.86619976 284.46998297 54.375 282.1875 C52.42807335 279.22028115 50.47711995 276.25574336 48.5234375 273.29296875 C48.0477684 272.57080673 47.5720993 271.84864471 47.08201599 271.104599 C43.75627951 266.07918297 40.28960775 261.17999024 36.70800781 256.33276367 C34.25458097 252.98192127 31.96548368 249.53391576 29.6875 246.0625 C23.48691917 236.6873703 17.17293256 227.39091863 10.8503418 218.09790039 C10.45797836 217.52079819 10.06561493 216.94369598 9.66136169 216.34910583 C8.59539333 214.78137837 7.52868363 213.21415505 6.46191406 211.64697266 C2.94236219 206.45304603 -0.5236685 201.22289773 -4 196 C-3.96241577 196.80527634 -3.92483154 197.61055267 -3.8861084 198.44023132 C-3.52808039 206.1300193 -3.17481525 213.8200059 -2.82654572 221.51024151 C-2.64745463 225.46129431 -2.46669324 229.41225412 -2.28173828 233.36303711 C-1.47690152 250.58017723 -0.7287699 267.75805311 -1 285 C-13.40059696 287.52057303 -25.80651905 290.011526 -38.25 292.3125 C-39.1589502 292.48362305 -40.06790039 292.65474609 -41.00439453 292.83105469 C-41.85372559 292.98606445 -42.70305664 293.14107422 -43.578125 293.30078125 C-44.31450195 293.43653564 -45.05087891 293.57229004 -45.80957031 293.7121582 C-48.22730852 294.02987035 -50.56388184 294.01854601 -53 294 C-52.55368391 280.31988573 -52.01793021 266.65223793 -51.2109375 252.98828125 C-51.07250501 250.55145564 -50.93448973 248.1146063 -50.796875 245.67773438 C-50.59211968 242.05217782 -50.38232605 238.42745344 -50.15136719 234.8034668 C-48.45161507 207.84142958 -49.25589657 180.93145496 -49.90585327 153.94321823 C-50.00105567 149.95578448 -50.09305776 145.96828514 -50.18359375 141.98074341 C-50.6237742 122.61168125 -51.08946507 103.24328411 -51.5625 83.875 C-51.78767586 74.65233065 -52.01221431 65.42964736 -52.23357147 56.20688546 C-52.34324105 51.64217887 -52.45548291 47.07753982 -52.56825256 42.51290894 C-53.11434968 20.03398535 -53.11434968 20.03398535 -53 9 C-40.61913588 6.4857848 -28.23373666 3.99536365 -15.8125 1.6875 C-14.91192871 1.51637695 -14.01135742 1.34525391 -13.08349609 1.16894531 C-12.2373877 1.01393555 -11.3912793 0.85892578 -10.51953125 0.69921875 C-9.42282104 0.49558716 -9.42282104 0.49558716 -8.30395508 0.2878418 C-5.52267647 -0.05963383 -2.80052135 -0.01764063 0 0 Z " fill="#000000" transform="translate(1114,477)"/>
<path d="M0 0 C-0.03092239 1.13633566 -0.03092239 1.13633566 -0.06246948 2.29562759 C-0.56752501 20.86506144 -1.0683316 39.43460562 -1.56460571 58.00427628 C-1.8047144 66.98500324 -2.04617822 75.96568967 -2.29101562 84.94628906 C-2.50480783 92.78828896 -2.71587085 100.63035715 -2.92386818 108.47251296 C-3.03374036 112.61165609 -3.14483469 116.75075697 -3.25921631 120.88977814 C-3.80292325 140.59991019 -4.13695709 160.28054938 -4 180 C-2.71016457 178.60646805 -2.71016457 178.60646805 -1.39427185 177.18478394 C-0.91058356 176.66220945 -0.42689528 176.13963497 0.07145023 175.6012249 C4.24320105 171.09301255 8.40095731 166.57462223 12.5 162 C16.47530054 157.56379505 20.51207668 153.18745602 24.55859375 148.81640625 C27.56410722 145.56616903 30.54559609 142.2969435 33.5 139 C36.9648988 135.13337381 40.47306752 131.30988287 44 127.5 C48.28879744 122.86626629 52.5394415 118.20164141 56.75390625 113.5 C60.81440647 108.98048671 64.90925568 104.4921326 69 100 C73.06149359 100.61519046 76.03661613 102.83199662 79.33984375 105.11328125 C80.2458004 105.72951607 80.2458004 105.72951607 81.1700592 106.35820007 C82.44524531 107.22718339 83.71851814 108.09898011 84.98999023 108.97338867 C86.92345746 110.30284432 88.86248257 111.6238305 90.80273438 112.94335938 C92.04460719 113.79117418 93.28615438 114.63946621 94.52734375 115.48828125 C95.10145493 115.88010086 95.6755661 116.27192047 96.26707458 116.6756134 C99.62572294 118.98837108 102.84669036 121.41467553 106 124 C104.61308541 127.2221248 103.07563327 129.03354401 100.375 131.25 C97.44647906 133.72391299 94.6842771 136.26267394 92 139 C88.79970478 142.25029983 85.45775424 145.24724245 82 148.21875 C79.91662922 150.0742521 77.95718793 152.01223101 76 154 C72.79970478 157.25029983 69.45775424 160.24724245 66 163.21875 C63.21251685 165.70135218 60.62570674 168.36447825 58.0078125 171.0234375 C55.40797942 173.58280625 52.66384353 175.946844 49.8984375 178.32421875 C47.13597706 180.76268691 44.57258941 183.36309585 42 186 C43.40839495 190.29445018 45.45854776 192.87046479 48.5625 196.125 C52.77703322 200.62034989 56.71951063 205.26354044 60.59375 210.05859375 C63.30585649 213.37387977 66.0810578 216.62869677 68.875 219.875 C72.7883667 224.42291641 76.68998979 228.97971745 80.5625 233.5625 C81.01294678 234.09544678 81.46339355 234.62839355 81.92749023 235.17749023 C83.73707308 237.31933287 85.54576529 239.46192673 87.35449219 241.60449219 C88.26096858 242.67803694 89.16770817 243.75135951 90.07470703 244.82446289 C90.97763588 245.8931929 91.87966614 246.9626828 92.78076172 248.03295898 C95.27674358 250.99094395 97.80092818 253.92001612 100.359375 256.82421875 C100.91439697 257.45851807 101.46941895 258.09281738 102.04125977 258.74633789 C103.11895213 259.97618258 104.20257304 261.20086341 105.29272461 262.41967773 C109 266.66422155 109 266.66422155 109 270 C107.40551758 271.42375183 107.40551758 271.42375183 105.14453125 272.91088867 C104.30365967 273.47124313 103.46278809 274.0315976 102.59643555 274.6089325 C101.67773682 275.20591446 100.75903809 275.80289642 99.8125 276.41796875 C98.88026611 277.03521317 97.94803223 277.65245758 96.98754883 278.28840637 C93.99803451 280.26457504 90.99922956 282.22611505 88 284.1875 C85.97593582 285.52183633 83.95248974 286.85711076 81.9296875 288.19335938 C76.96025547 291.47317308 71.98311289 294.7410148 67 298 C63.06967007 296.22345894 61.62559603 294.35714099 59.30078125 290.6875 C58.60291504 289.6046875 57.90504883 288.521875 57.18603516 287.40625 C56.82544006 286.84164063 56.46484497 286.27703125 56.09332275 285.6953125 C54.35169717 282.99473794 52.53945753 280.34325823 50.73046875 277.6875 C49.99683105 276.60702393 49.26319336 275.52654785 48.50732422 274.41333008 C47.73405633 273.27554873 46.9607814 272.13777217 46.1875 271 C45.35948526 269.78087876 44.53152427 268.561721 43.70361328 267.3425293 C41.98961755 264.81855104 40.27539455 262.29472735 38.56103516 259.77099609 C36.08496107 256.12555729 33.61055783 252.47898702 31.13671875 248.83203125 C30.74141968 248.24929443 30.34612061 247.66655762 29.93884277 247.06616211 C29.1452424 245.89626121 28.35164295 244.72635968 27.55804443 243.55645752 C22.43188628 235.99985035 17.30388739 228.4445091 12.16796875 220.89453125 C11.7775238 220.32054092 11.38707886 219.7465506 10.98480225 219.15516663 C9.13339774 216.43361365 7.28157031 213.71235036 5.42919922 210.99145508 C4.77322754 210.02747803 4.11725586 209.06350098 3.44140625 208.0703125 C2.87107666 207.23258301 2.30074707 206.39485352 1.71313477 205.53173828 C-0.20506476 202.69694719 -2.10247738 199.84866243 -4 197 C-4.08137712 207.45028596 -3.87392368 217.84083173 -3.34375 228.28125 C-3.27609784 229.674094 -3.20884611 231.0669575 -3.14196777 232.45983887 C-2.96766483 236.07348832 -2.78915667 239.68691545 -2.60931396 243.30029297 C-2.32069626 249.10809979 -2.03743805 254.91616493 -1.75654602 260.72434998 C-1.65866469 262.7317289 -1.55806541 264.73897471 -1.45739746 266.74621582 C-1.15965674 272.83901734 -0.91958365 278.89984559 -1 285 C-7.60071348 286.28825842 -14.2028076 287.56924871 -20.8059082 288.84521484 C-23.05167504 289.28006768 -25.2971215 289.71657848 -27.54223633 290.15478516 C-30.77081679 290.78464757 -34.00050538 291.40852325 -37.23046875 292.03125 C-38.73386055 292.32654602 -38.73386055 292.32654602 -40.2676239 292.62780762 C-41.20822159 292.80799438 -42.14881927 292.98818115 -43.11791992 293.17382812 C-43.94176682 293.33371216 -44.76561371 293.49359619 -45.61442566 293.6583252 C-48.10780114 294.01543986 -50.48464998 294.05917524 -53 294 C-53.18492326 283.03131086 -52.93146809 272.12683746 -52.34375 261.171875 C-52.27728271 259.92740601 -52.21081543 258.68293701 -52.14233398 257.40075684 C-51.86325863 252.25353026 -51.57814053 247.10670843 -51.28173828 241.96044922 C-48.80257081 198.47663889 -50.37354152 155.00625653 -51.5 111.5 C-51.78723419 100.40639595 -52.07084369 89.31271677 -52.34375 78.21875 C-52.36839766 77.22150658 -52.36839766 77.22150658 -52.39354324 76.20411682 C-52.94563605 53.79902226 -53.20738218 31.41110143 -53 9 C-40.61775147 6.49203808 -28.23389477 3.99539302 -15.8125 1.6875 C-14.91192871 1.51637695 -14.01135742 1.34525391 -13.08349609 1.16894531 C-12.2373877 1.01393555 -11.3912793 0.85892578 -10.51953125 0.69921875 C-9.42282104 0.49558716 -9.42282104 0.49558716 -8.30395508 0.2878418 C-5.52267647 -0.05963383 -2.80052135 -0.01764063 0 0 Z " fill="#000000" transform="translate(436,477)"/>
<path d="M0 0 C12.3835858 10.3305751 17.37230154 22.88962785 19.3125 38.75 C19.74354687 44.76596103 19.71329086 50.79543665 19.69262505 56.82380104 C19.68335518 59.78319496 19.69391683 62.74197632 19.70924377 65.70133972 C19.74890604 74.10402707 19.75055692 82.50665822 19.74829102 90.90942383 C19.7482394 96.08160523 19.76765591 101.25345327 19.79762459 106.42554283 C19.80826956 109.30678474 19.79643026 112.18733975 19.78379822 115.06855774 C19.81464597 130.53580444 21.92982707 145.05008047 28.5625 159.1875 C29.2805596 160.76748576 29.99431755 162.34943575 30.703125 163.93359375 C31.1676709 164.93217407 31.1676709 164.93217407 31.64160156 165.95092773 C32.3125 167.75 32.3125 167.75 32.3125 170.75 C26.97782532 173.0378103 21.63926208 175.31619501 16.296875 177.5859375 C14.4800192 178.35939897 12.66425292 179.13542495 10.84960938 179.9140625 C8.2411058 181.03280802 5.62882327 182.14227282 3.015625 183.25 C2.20506653 183.59998047 1.39450806 183.94996094 0.55938721 184.31054688 C-0.20109924 184.63087891 -0.96158569 184.95121094 -1.74511719 185.28125 C-2.7443924 185.70760742 -2.7443924 185.70760742 -3.76385498 186.14257812 C-5.6875 186.75 -5.6875 186.75 -9.6875 186.75 C-11.29614559 183.25204189 -12.89858957 179.75127565 -14.5 176.25 C-14.95181641 175.26773438 -15.40363281 174.28546875 -15.86914062 173.2734375 C-18.35645522 167.8267632 -20.66750192 162.38720395 -22.6875 156.75 C-23.36554688 157.595625 -24.04359375 158.44125 -24.7421875 159.3125 C-35.43768065 172.44442572 -47.37077522 182.75198415 -64.6875 185.75 C-81.27509822 187.26872586 -96.29810246 185.37198407 -109.6875 174.75 C-121.02301252 164.40325493 -125.58388505 151.75370231 -126.97265625 136.6484375 C-127.46021996 120.58003344 -121.87183784 107.56382626 -110.99584961 95.9621582 C-94.52650556 79.12197025 -71.95116748 72.92294546 -48.99031067 72.64892578 C-40.8888955 72.58557583 -32.78838906 72.6464997 -24.6875 72.75 C-25.63575975 56.12986927 -25.63575975 56.12986927 -33.25 41.8125 C-43.79401272 34.54254502 -59.70124767 35.41523693 -71.87939453 37.04296875 C-82.57873815 39.01774217 -94.43478965 43.62367613 -103.92578125 49.0234375 C-105.6875 49.75 -105.6875 49.75 -107.63647461 49.67993164 C-109.6875 48.75 -109.6875 48.75 -111.05957031 46.09790039 C-111.45756836 44.94281982 -111.85556641 43.78773926 -112.265625 42.59765625 C-112.59007599 41.67465981 -112.59007599 41.67465981 -112.92108154 40.73301697 C-113.60849001 38.76442845 -114.27271937 36.78882941 -114.9375 34.8125 C-115.39962676 33.48453281 -115.86315222 32.15705149 -116.328125 30.83007812 C-119.6875 21.14653786 -119.6875 21.14653786 -119.6875 18.75 C-89.15437424 -3.52245132 -34.36168469 -25.45309977 0 0 Z M-77.6875 109.75 C-81.3402363 115.92519194 -81.66113578 122.96076456 -80.25390625 129.8828125 C-78.28735049 136.11227486 -74.29857728 141.68652727 -68.58203125 144.953125 C-59.43066548 148.51648866 -50.86261489 145.96853634 -42.08984375 142.421875 C-36.05256403 139.4552209 -29.47750625 135.54000625 -24.6875 130.75 C-24.60023777 128.96928754 -24.58050959 127.1851686 -24.58984375 125.40234375 C-24.59306641 124.32275391 -24.59628906 123.24316406 -24.59960938 122.13085938 C-24.60798828 120.99455078 -24.61636719 119.85824219 -24.625 118.6875 C-24.62951172 117.54732422 -24.63402344 116.40714844 -24.63867188 115.23242188 C-24.65050253 112.40489649 -24.6669859 109.5774736 -24.6875 106.75 C-40.04081017 100.26838266 -65.25039483 96.73442482 -77.6875 109.75 Z " fill="#000000" transform="translate(996.6875,585.25)"/>
<path d="M0 0 C10.49405629 9.53520851 15.49270608 23.42673121 16.54491806 37.33234978 C16.77794001 42.57459361 16.79053587 47.81769763 16.78178406 53.06435776 C16.77723525 56.03572108 16.79150268 59.0065106 16.81018066 61.97781372 C16.84665485 68.28858578 16.86061699 74.59929442 16.87109375 80.91015625 C16.88325609 88.22741354 16.90515656 95.54438518 16.95109558 102.86151505 C16.96447218 105.75934973 16.96053139 108.65680464 16.95568848 111.55465698 C16.99681751 125.3220237 18.0372103 138.72132823 23.37109375 151.59765625 C23.61859375 152.22994141 23.86609375 152.86222656 24.12109375 153.51367188 C25.10770243 156.0135944 26.12965111 158.49507993 27.2265625 160.94873047 C28.51505148 163.83497602 29.37109375 165.83370125 29.37109375 169.03515625 C24.03871154 171.34669148 18.70021102 173.64321414 13.35546875 175.92602539 C11.53794989 176.70479976 9.72217484 177.48765698 7.90820312 178.2746582 C5.30134965 179.4048176 2.68858931 180.52017297 0.07421875 181.6328125 C-0.73633972 181.98795425 -1.54689819 182.34309601 -2.38201904 182.70899963 C-3.14250549 183.0294072 -3.90299194 183.34981476 -4.68652344 183.67993164 C-5.35270691 183.96639053 -6.01889038 184.25284943 -6.70526123 184.54798889 C-9.04977515 185.14174223 -10.3813482 184.88384803 -12.62890625 184.03515625 C-13.84570312 182.33618164 -13.84570312 182.33618164 -14.84765625 180.1328125 C-15.22092041 179.32884033 -15.59418457 178.52486816 -15.97875977 177.6965332 C-16.35830811 176.83890381 -16.73785645 175.98127441 -17.12890625 175.09765625 C-17.52327881 174.23551514 -17.91765137 173.37337402 -18.32397461 172.48510742 C-20.93190812 166.74029063 -23.45135523 160.95870413 -25.62890625 155.03515625 C-26.09039063 155.65261719 -26.551875 156.27007813 -27.02734375 156.90625 C-37.56189748 170.58451443 -50.26585088 180.87010908 -67.62890625 184.03515625 C-83.98684333 185.50496052 -99.71757948 183.55342813 -112.81640625 172.84765625 C-121.87834431 164.37154045 -127.88397729 153.12200815 -128.8059082 140.63842773 C-129.21281931 124.1560961 -128.16730704 112.34192281 -117.62890625 99.03515625 C-117.17902344 98.4215625 -116.72914062 97.80796875 -116.265625 97.17578125 C-104.59304173 82.16325527 -84.61374443 74.1781641 -66.2487793 71.71606445 C-58.15649474 70.85691337 -50.06945007 70.92110829 -41.94140625 70.97265625 C-40.54622558 70.97768597 -39.15104314 70.98224625 -37.75585938 70.98632812 C-34.38016188 70.99800874 -31.00455799 71.01438792 -27.62890625 71.03515625 C-28.43475145 54.37555764 -28.43475145 54.37555764 -36.19140625 40.16015625 C-46.67509698 32.752365 -62.94224297 33.5646369 -75.09912109 35.41015625 C-85.6473192 37.53886556 -95.35165086 41.87841033 -105.03125 46.4609375 C-108.62890625 48.03515625 -108.62890625 48.03515625 -111.62890625 48.03515625 C-113.09183463 44.18271824 -114.54841916 40.32791116 -116.00390625 36.47265625 C-116.41640625 35.38662109 -116.82890625 34.30058594 -117.25390625 33.18164062 C-119.26634466 27.84218711 -121.18681611 22.55788606 -122.62890625 17.03515625 C-88.50219101 -4.66754745 -37.24763712 -27.83887291 0 0 Z M-79.62890625 107.03515625 C-83.59976841 112.84963299 -84.25299445 119.86648946 -83.2265625 126.72265625 C-81.37183581 133.92206873 -77.98081447 138.84912915 -71.75390625 142.91015625 C-62.32802109 146.30347491 -54.3133643 144.9320139 -45.37548828 140.73046875 C-42.38077009 139.2690786 -39.47399549 137.7662952 -36.62890625 136.03515625 C-35.83121826 135.59147705 -35.03353027 135.14779785 -34.21166992 134.69067383 C-30.443276 132.28309912 -28.0120942 130.59157129 -26.91333008 126.12866211 C-26.74289717 122.74165827 -26.84136249 119.48100642 -27.06640625 116.09765625 C-27.10701172 114.93685547 -27.14761719 113.77605469 -27.18945312 112.58007812 C-27.295107 109.72742338 -27.442626 106.88349271 -27.62890625 104.03515625 C-55.04242129 97.40745741 -55.04242129 97.40745741 -79.62890625 107.03515625 Z " fill="#000000" transform="translate(1587.62890625,586.96484375)"/>
<path d="M0 0 C18.08300556 13.47531664 27.23127737 31.85168524 30.875 53.8125 C35.47870258 86.49225009 29.8101127 124.8106734 9.875 151.8125 C7.28782861 155.21667289 4.60742651 158.52451789 1.875 161.8125 C1.41867187 162.41578125 0.96234375 163.0190625 0.4921875 163.640625 C-9.46283641 176.39736223 -26.92901145 186.50874505 -42.95947266 188.61767578 C-47.86147597 189.05869028 -52.76826958 189.13874827 -57.6875 189.1875 C-58.72825684 189.20159912 -59.76901367 189.21569824 -60.84130859 189.23022461 C-79.08369754 189.11673046 -94.67330844 181.82203138 -107.67919922 169.28613281 C-125.45296576 151.17021676 -131.53698189 126.77611194 -131.42529297 102.11743164 C-130.95964627 78.58968833 -125.76708077 56.32362321 -114.125 35.8125 C-113.57070313 34.83023438 -113.01640625 33.84796875 -112.4453125 32.8359375 C-99.86378826 11.94699534 -81.80760731 -3.68036851 -58.125 -10.1875 C-38.83425887 -14.5497869 -16.45766193 -10.89486966 0 0 Z M-78.125 49.8125 C-85.76825293 61.50316476 -87.67319307 74.52346498 -87.5 88.25 C-87.48839844 89.43505127 -87.47679687 90.62010254 -87.46484375 91.84106445 C-87.16951322 107.62713289 -83.81126962 123.79502417 -72.875 135.9375 C-65.27579429 142.50045039 -56.1662885 146.21061276 -46.125 145.8125 C-35.85974035 144.79054993 -28.5624775 141.31811016 -21.9453125 133.3515625 C-9.79133528 116.39858998 -10.34212267 93.03587344 -12.55859375 73.16015625 C-14.4106874 62.19714228 -18.82076181 50.02167758 -27.99609375 43.14453125 C-43.74768169 33.28895054 -65.88517023 35.23445714 -78.125 49.8125 Z " fill="#000000" transform="translate(685.125,586.1875)"/>
<path d="M0 0 C-1.65 17.16 -3.3 34.32 -5 52 C10.18 52 25.36 52 41 52 C40.0409375 59.363125 40.0409375 59.363125 39.0625 66.875 C38.76291382 69.19700439 38.76291382 69.19700439 38.45727539 71.56591797 C38.29735107 72.77908691 38.13742676 73.99225586 37.97265625 75.2421875 C37.81031494 76.4885498 37.64797363 77.73491211 37.48071289 79.01904297 C37 82 37 82 36 84 C21.81 84 7.62 84 -7 84 C-6.979375 87.114375 -6.95875 90.22875 -6.9375 93.4375 C-6.90550598 104.2546006 -7.14378311 115.0573711 -7.42907715 125.86984253 C-7.92689588 144.12024889 -7.92689588 144.12024889 -8.1875 162.375 C-8.20039062 163.2213501 -8.21328125 164.0677002 -8.2265625 164.93969727 C-8.23853544 172.28434565 -8.14239441 182.32563375 -3 188 C4.03808739 192.59005699 11.97363078 190.97262625 19.88671875 189.44140625 C21.52364293 189.086617 23.15632758 188.71091811 24.78125 188.3046875 C27.4034507 187.94459656 29.43059622 188.43521997 32 189 C35.99463425 211.8381556 35.99463425 211.8381556 32.97851562 218.13134766 C30.02097458 221.52509507 26.22765251 223.35064473 22.13330078 225.08349609 C19.92640384 226.03161822 17.85304457 227.11751194 15.74609375 228.26953125 C3.17598512 235.03035243 -9.01142619 238.31062006 -23.26953125 235.3125 C-34.92098459 231.40152266 -44.19798561 222.77543657 -49.875 211.9375 C-55.90802172 198.69724427 -55.25297891 184.37885405 -54.22039795 170.16461182 C-52.86120002 150.99345869 -52.82442077 131.8322666 -52.875 112.625 C-52.87677876 111.91514324 -52.87855751 111.20528648 -52.88039017 110.47391891 C-52.90356436 101.64913995 -52.94925094 92.82469833 -53 84 C-61.58 84 -70.16 84 -79 84 C-77.91870501 73.26428548 -76.75353096 62.64643797 -75 52 C-67.74 52 -60.48 52 -53 52 C-53 38.14 -53 24.28 -53 10 C-45.77377292 8.574106 -38.54734225 7.14934497 -31.3203125 5.72753906 C-28.86021785 5.24319168 -26.40025635 4.7581675 -23.94042969 4.27246094 C-20.41115283 3.57570604 -16.88140921 2.8813614 -13.3515625 2.1875 C-12.24632233 1.96876221 -11.14108215 1.75002441 -10.00234985 1.5246582 C-8.98144257 1.32445068 -7.96053528 1.12424316 -6.90869141 0.91796875 C-6.00712311 0.74031982 -5.10555481 0.5626709 -4.17666626 0.37963867 C-2 0 -2 0 0 0 Z " fill="#000000" transform="translate(816,535)"/>
<path d="M0 0 C-1.26690462 17.38866401 -3.00492352 34.67910878 -5 52 C10.18 52 25.36 52 41 52 C40.525625 55.980625 40.05125 59.96125 39.5625 64.0625 C39.41498291 65.30394775 39.26746582 66.54539551 39.11547852 67.82446289 C38.99615967 68.8221167 38.87684082 69.81977051 38.75390625 70.84765625 C38.63345947 71.85836182 38.5130127 72.86906738 38.38891602 73.91040039 C37.96491309 77.27873499 37.48011366 80.63920436 37 84 C22.48 84 7.96 84 -7 84 C-6.979375 88.640625 -6.95875 93.28125 -6.9375 98.0625 C-6.90592822 108.74393047 -7.00577812 119.41191828 -7.29296875 130.08984375 C-7.31961105 131.117715 -7.34625336 132.14558624 -7.373703 133.2046051 C-7.50656107 138.27906786 -7.65289652 143.35257904 -7.82006836 148.42602539 C-8.08368804 157.33804566 -8.14557337 166.1491893 -7.2734375 175.03125 C-7.21032379 175.75300415 -7.14721008 176.4747583 -7.08218384 177.21838379 C-6.51246742 182.06512372 -5.06163847 185.22009381 -2 189 C6.05861482 192.96800398 16.65431736 190.67595747 25.03515625 188.40234375 C27.38782476 187.92058459 29.60387227 187.97465327 32 188 C32.3389231 191.35362609 32.67011964 194.70797332 33 198.0625 C33.09539062 199.00544922 33.19078125 199.94839844 33.2890625 200.91992188 C33.46958543 202.77028186 33.63581804 204.62209864 33.78686523 206.47509766 C33.96635274 208.60139753 34.21196126 210.72196627 34.47265625 212.83984375 C34 216 34 216 31.24609375 218.84375 C29.99627564 219.75678173 28.7250281 220.64096353 27.4375 221.5 C26.76654297 221.96849365 26.09558594 222.4369873 25.40429688 222.91967773 C10.96942554 232.70155641 -4.35646136 238.31111552 -21.9453125 235.53515625 C-33.18596495 232.55761665 -41.8415395 224.91539995 -47.76171875 215.0703125 C-53.21953514 204.6832818 -54.31402518 195.76531672 -54.1875 184.125 C-54.18685547 183.03703125 -54.18621094 181.9490625 -54.18554688 180.828125 C-54.15634249 175.20790308 -53.99630832 169.61454375 -53.65716553 164.00419617 C-52.74673259 148.8967645 -52.66172465 133.76651586 -52.46777344 118.63671875 C-52.41676602 114.72066564 -52.36150161 110.80467256 -52.30664062 106.88867188 C-52.20036029 99.25916487 -52.09904442 91.629605 -52 84 C-60.91 84 -69.82 84 -79 84 C-77.68 73.44 -76.36 62.88 -75 52 C-67.41 52 -59.82 52 -52 52 C-52 38.14 -52 24.28 -52 10 C-44.91620125 8.57407358 -37.83219129 7.14930153 -30.74755859 5.72753906 C-28.33596133 5.24320426 -25.9245024 4.75818015 -23.51318359 4.27246094 C-20.05341888 3.57567314 -16.59316931 2.88134059 -13.1328125 2.1875 C-11.50776291 1.85939331 -11.50776291 1.85939331 -9.84988403 1.5246582 C-8.8489975 1.32445068 -7.84811096 1.12424316 -6.81689453 0.91796875 C-5.93309113 0.74031982 -5.04928772 0.5626709 -4.13870239 0.37963867 C-2 0 -2 0 0 0 Z " fill="#000000" transform="translate(1404,535)"/>
<path d="M0 0 C-0.38918139 15.35028999 -0.82949522 30.67545557 -1.89453125 45.99609375 C-4.98922339 92.49668078 -2.7122614 138.52278493 0 185 C-6.60071348 186.28825842 -13.2028076 187.56924871 -19.8059082 188.84521484 C-22.05167504 189.28006768 -24.2971215 189.71657848 -26.54223633 190.15478516 C-29.77081679 190.78464757 -33.00050538 191.40852325 -36.23046875 192.03125 C-37.73386055 192.32654602 -37.73386055 192.32654602 -39.2676239 192.62780762 C-40.20822159 192.80799438 -41.14881927 192.98818115 -42.11791992 193.17382812 C-42.94176682 193.33371216 -43.76561371 193.49359619 -44.61442566 193.6583252 C-47.10780114 194.01543986 -49.48464998 194.05917524 -52 194 C-52.29004035 180.33319132 -51.47209874 166.74354094 -50.71661377 153.10223389 C-48.66107931 115.36067522 -49.08966355 78.17224386 -50.93212891 40.43896484 C-50.96688261 39.72471973 -51.00163631 39.01047462 -51.03744316 38.27458572 C-51.20277626 34.88324559 -51.37070038 31.49208639 -51.54269409 28.10107422 C-51.84188939 22.05874463 -52.07944107 16.0498159 -52 10 C-46.78690029 8.07761271 -41.55876711 7.05080145 -36.11328125 6.0546875 C-35.17445602 5.87994904 -34.2356308 5.70521057 -33.26835632 5.525177 C-31.29280842 5.15845551 -29.31687231 4.79381985 -27.34057617 4.43115234 C-24.31132668 3.8747845 -21.283537 3.31094616 -18.25585938 2.74609375 C-16.33341511 2.39018303 -14.41089171 2.0346994 -12.48828125 1.6796875 C-11.58201492 1.51097137 -10.6757486 1.34225525 -9.74201965 1.16842651 C-8.48007027 0.93786057 -8.48007027 0.93786057 -7.19262695 0.70263672 C-6.45349564 0.56654999 -5.71436432 0.43046326 -4.95283508 0.29025269 C-3 0 -3 0 0 0 Z " fill="#000000" transform="translate(1296,577)"/>
<path d="M0 0 C5.93054361 3.13311738 9.71394858 6.46318206 12.3125 12.75 C15.15954235 22.61009583 15.50255385 32.79676398 11.16015625 42.26171875 C6.05081726 51.50381946 -0.76210803 57.93946905 -10.92578125 61.12890625 C-18.46461488 62.82434408 -25.75246428 62.28624344 -32.6875 58.75 C-39.17250635 54.29227805 -43.6284573 49.27299485 -45.4375 41.546875 C-47.23031281 31.19338104 -46.79953027 21.61674813 -40.6875 12.75 C-30.56436327 0.71005631 -15.55867962 -5.50537894 0 0 Z " fill="#000000" transform="translate(1287.6875,490.25)"/>
</svg>
